<svg width="39" height="38" viewBox="0 0 39 38" fill="none" xmlns="http://www.w3.org/2000/svg">
<path d="M16.3157 2.50517L18.2171 0.60381C19.0222 -0.20127 20.324 -0.20127 21.1205 0.60381L37.7702 17.245C38.5753 18.0501 38.5753 19.3519 37.7702 20.1484L21.1205 36.7981C20.3154 37.6032 19.0136 37.6032 18.2171 36.7981L16.3157 34.8968C15.5021 34.0831 15.5192 32.7556 16.35 31.9591L26.6704 22.1268H2.05552C0.916421 22.1268 0 21.2104 0 20.0713V17.3306C0 16.1915 0.916421 15.2751 2.05552 15.2751H26.6704L16.35 5.44285C15.5106 4.64634 15.4935 3.31881 16.3157 2.50517Z" fill="white"/>
</svg>
